# xmcd
#
# Track frame offsets:
#	150
#	13980
#	26546
#	40633
#	60505
#	69469
#	95473
#	112161
#	125185
#	140567
#	155144
#	166368
#	181123
#	187614
#	202952
#
# Disc length: 2980 seconds
#
# Revision: 1
# Processed by: cddbd v1.5.2PL0 Copyright (c) Steve Scherf et al.
# Submitted via: audiograbber 1.83.01
#
DISCID=cd0ba20f
DTITLE=The Malchicks - To Kill A Mockingbird
DYEAR=2007
DGENRE=Blues
TTITLE0=A Taste Of Honey
TTITLE1=Baby, Please Don't Go
TTITLE2=I Got My Mojo Working
TTITLE3=Little Red Rooster
TTITLE4=Little Bird
TTITLE5=I Put A Spell On You
TTITLE6=House Of The Rising Sun
TTITLE7=Boom Boom
TTITLE8=Corrina, Corrina
TTITLE9=Bright Lights, Big City
TTITLE10=Black Girl
TTITLE11=Thirteen
TTITLE12=Leadbelly Blues
TTITLE13=Freight Train
TTITLE14=Hallelujah
EXTD=
EXTT0=
EXTT1=
EXTT2=
EXTT3=
EXTT4=
EXTT5=
EXTT6=
EXTT7=
EXTT8=
EXTT9=
EXTT10=
EXTT11=
EXTT12=
EXTT13=
EXTT14=
PLAYORDER=
